<html>
<head>
<meta charset="UTF-8">
<meta name="viewport" content="width=device-width, initial-scale=1.0"/>

<style>
.comment
{
    padding-left: 20px;
    margin-top: 4px;
    margin-right: 4px;
    margin-bottom: 4px;
    border: 2px #000 solid;
}
.submission
{
    border: 4px #00f solid;
    padding-left: 20px;
}
.hidden
{
    display: none;
}
</style>
</head>
<body><div class="submission" id="t3_66k24g">
    <p class="userinfo">
        <a href="https://www.reddit.com/u/TheMrMcGibblets">TheMrMcGibblets</a>
        <span class="score"> | 23 points</span>
        <span class="timestamp"> | Apr 20 2017 19:32:45</span>
    </p>
    <strong>[TV] Fargo S03E01 1080p WEBRip HEVC 2CH x265 [953.6MB]</strong>
    <p><p>Add mega</p>
<p>.nz/#!4eAiTLCK</p>
<p>!R18_0tfPUfsdsfBP331uuauMv3yGEVxJGTAQd0CXCMM</p>
<pre><code>Format                                   : Matroska
Format version                           : Version 4 / Version 2
File size                                : 954 MiB
Duration                                 : 1h 6mn
Overall bit rate                         : 2 006 Kbps
Writing application                      : Lavf57.25.100

Video

ID                                       : 1
Format                                   : V_MPEGH/ISO/HEVC
Duration                                 : 1h 6mn
Bit rate                                 : 1 646 Kbps
Width                                    : 1 920 pixels
Height                                   : 962 pixels
Display aspect ratio                     : 1.996
Frame rate                               : 25.000 fps
Bits/(Pixel*Frame)                       : 0.036
Stream size                              : 782 MiB (82%)
Default                                  : Yes
Forced                                   : No
DURATION                                 : 01:06:28.171000000

Audio

ID                                       : 2
Format                                   : E-AC-3
Format/Info                              : Audio Coding 3
Format settings, Endianness              : Big
Codec ID                                 : A_EAC3
Duration                                 : 1h 6mn
Bit rate mode                            : Constant
Bit rate                                 : 320 Kbps
Channel(s)                               : 2 channels
Channel positions                        : Front: L R
Sampling rate                            : 48.0 KHz
Bit depth                                : 32 bits
Compression mode                         : Lossy
Stream size                              : 152 MiB (16%)
Writing library                          : Lavc57.24.102 eac3
Default                                  : Yes
Forced                                   : No
DURATION                                 : 01:06:28.159000000

Text

ID                                       : 3
Codec ID                                 : S_TEXT/ASS
Default                                  : No
</code></pre></p>
    <p class="toolbar">
        <a href="https://www.reddit.com/r/megalinks/comments/66k24g">permalink</a>
    </p>
</div>
<div class="comment" id="t1_dgj3w3m">
    <p class="userinfo">
        <a
        class="toggle_hide_button"
        href="javascript:void(0)"
        onclick="toggle_collapse(this.parentElement.parentElement)">[-]
        </a>
        <a href="https://www.reddit.com/u/Ellis__">Ellis__</a>
        <span class="score"> | 2 points</span>
        <span class="timestamp"> | Apr 20 2017 20:05:44</span>
    </p>
    <div class="collapsible">
        <p>Thank You</p>
        <p class="toolbar">
            <a href="https://www.reddit.com/r/megalinks/comments/66k24g/_/dgj3w3m">permalink</a>
        </p>
        
    </div>
</div>

<div class="comment" id="t1_dgj2a90">
    <p class="userinfo">
        <a
        class="toggle_hide_button"
        href="javascript:void(0)"
        onclick="toggle_collapse(this.parentElement.parentElement)">[-]
        </a>
        <a href="https://www.reddit.com/u/SubZorro">SubZorro</a>
        <span class="score"> | 1 points</span>
        <span class="timestamp"> | Apr 20 2017 19:37:09</span>
    </p>
    <div class="collapsible">
        <h5>Subtitles for this episode:</h5>
<hr>
<blockquote>
<ul>
<li>
<p><strong>Fargo.S03E01.PROPER.720p.HDTV.x264-SVA</strong> - <code>1 CD</code> - <a href="http://dl.opensubtitles.org/en/download/vrf-76837eef/sub/6954754">Download Subtitle</a></p>
</li>
<li>
<p><strong>Fargo.S03E01.HDTV.x264-FLEET</strong> - <code>1 CD</code> - <a href="http://dl.opensubtitles.org/en/download/vrf-134b6f05/sub/6954786">Download Subtitle</a></p>
</li>
<li>
<p><strong>Fargo.S03E01.PROPER.HDTV.x264-SVA</strong> - <code>1 CD</code> - <a href="http://dl.opensubtitles.org/en/download/vrf-8212e13d/sub/6954781">Download Subtitle</a></p>
</li>
</ul>
</blockquote>
<hr>
<p>^This ^list ^of ^subtitles ^are ^taken ^from <a href="http://www.opensubtitles.org">^opensubtitles.org</a> ^| ^For ^feedback ^or ^suggestions ^contact <a href="http://www.reddit.com/message/compose/?to=indigo6alpha">^/u/indigo6alpha</a></p>
        <p class="toolbar">
            <a href="https://www.reddit.com/r/megalinks/comments/66k24g/_/dgj2a90">permalink</a>
        </p>
        
    </div>
</div>

<div class="comment" id="t1_dgj9pp5">
    <p class="userinfo">
        <a
        class="toggle_hide_button"
        href="javascript:void(0)"
        onclick="toggle_collapse(this.parentElement.parentElement)">[-]
        </a>
        <a href="https://www.reddit.com/u/gaythor">gaythor</a>
        <span class="score"> | 1 points</span>
        <span class="timestamp"> | Apr 20 2017 21:52:37</span>
    </p>
    <div class="collapsible">
        <p>thanks!</p>
        <p class="toolbar">
            <a href="https://www.reddit.com/r/megalinks/comments/66k24g/_/dgj9pp5">permalink</a>
        </p>
        
    </div>
</div>
</body>

<script>
function toggle_collapse(comment_div)
{
    var button = comment_div.getElementsByClassName("toggle_hide_button")[0];
    var collapsible = comment_div.getElementsByClassName("collapsible")[0];
    if (collapsible.classList.contains("hidden"))
    {
        collapsible.classList.remove("hidden");
        button.innerText = "[-]";
    }
    else
    {
        collapsible.classList.add("hidden");
        button.innerText = "[+]";
    }
}
</script>
</html>
